<svg width="30" height="26" viewBox="0 0 30 26" fill="none" xmlns="http://www.w3.org/2000/svg">
<path fill-rule="evenodd" clip-rule="evenodd" d="M0 3.33331C0 1.67646 1.34315 0.333313 3 0.333313H27C28.6569 0.333313 30 1.67646 30 3.33331V22.3333C30 23.9902 28.6569 25.3333 27 25.3333H3C1.34315 25.3333 0 23.9902 0 22.3333V3.33331ZM3.33333 20.3333L10.8333 10.3333L18.3333 20.3333H3.33333ZM26.6667 10.3333C26.6667 13.0947 24.4281 15.3333 21.6667 15.3333C18.9052 15.3333 16.6667 13.0947 16.6667 10.3333C16.6667 7.57189 18.9052 5.33331 21.6667 5.33331C24.4281 5.33331 26.6667 7.57189 26.6667 10.3333Z" fill="#9F9FB7"/>
</svg>
