<svg width="38" height="29" viewBox="0 0 38 29" fill="none" xmlns="http://www.w3.org/2000/svg">
<path d="M20.5812 12.527L17.4189 11.4729C18.6934 7.6494 20.7378 5.26424 23.5958 4.54974C25.0838 4.17773 27.3334 1.7825 27.3334 0.333313H30.6667C30.6667 3.32857 27.3607 7.04445 24.4042 7.78355C22.8178 8.18017 21.5289 9.6839 20.5812 12.527Z" fill="#9F9FB7"/>
<path fill-rule="evenodd" clip-rule="evenodd" d="M21.0953 25.3333H16.9048C15.2234 27.3692 12.6799 28.6666 9.83335 28.6666C4.77074 28.6666 0.666687 24.5626 0.666687 19.5C0.666687 15.0248 3.8736 11.2986 8.11473 10.4942C8.44676 10.3897 8.80015 10.3333 9.16669 10.3333H9.83335H28.1667H28.8334C29.1999 10.3333 29.5533 10.3897 29.8853 10.4942C34.1264 11.2986 37.3334 15.0248 37.3334 19.5C37.3334 24.5626 33.2293 28.6666 28.1667 28.6666C25.3201 28.6666 22.7766 27.3692 21.0953 25.3333ZM7.33335 14.1666C7.33335 13.8905 7.55721 13.6666 7.83335 13.6666H10.1667C10.4428 13.6666 10.6667 13.8905 10.6667 14.1666V16.5C10.6667 16.7761 10.4428 17 10.1667 17H7.83335C7.55721 17 7.33335 16.7761 7.33335 16.5V14.1666ZM11.1667 17C10.8905 17 10.6667 17.2238 10.6667 17.5V19.8333C10.6667 20.1095 10.8905 20.3333 11.1667 20.3333H13.5C13.7762 20.3333 14 20.1095 14 19.8333V17.5C14 17.2238 13.7762 17 13.5 17H11.1667ZM30.6667 17C31.5872 17 32.3334 16.2538 32.3334 15.3333C32.3334 14.4128 31.5872 13.6666 30.6667 13.6666C29.7462 13.6666 29 14.4128 29 15.3333C29 16.2538 29.7462 17 30.6667 17ZM30.6667 20.3333C30.6667 21.2538 29.9205 22 29 22C28.0795 22 27.3334 21.2538 27.3334 20.3333C27.3334 19.4128 28.0795 18.6666 29 18.6666C29.9205 18.6666 30.6667 19.4128 30.6667 20.3333ZM7.33335 20.8333C7.33335 20.5572 7.55721 20.3333 7.83335 20.3333H10.1667C10.4428 20.3333 10.6667 20.5572 10.6667 20.8333V23.1666C10.6667 23.4428 10.4428 23.6666 10.1667 23.6666H7.83335C7.55721 23.6666 7.33335 23.4428 7.33335 23.1666V20.8333ZM4.50002 17C4.22388 17 4.00002 17.2238 4.00002 17.5V19.8333C4.00002 20.1095 4.22388 20.3333 4.50002 20.3333H6.83335C7.1095 20.3333 7.33335 20.1095 7.33335 19.8333V17.5C7.33335 17.2238 7.1095 17 6.83335 17H4.50002Z" fill="#9F9FB7"/>
</svg>
