<svg width="34" height="27" viewBox="0 0 34 27" fill="none" xmlns="http://www.w3.org/2000/svg">
<path fill-rule="evenodd" clip-rule="evenodd" d="M18.4058 19.6667H15.5942L15.3087 20.7322C14.2254 24.7749 10.07 27.1741 6.02725 26.0908C1.98451 25.0076 -0.414639 20.8521 0.668612 16.8094L3.53478 6.1127C4.61803 2.06996 8.77347 -0.329189 12.8162 0.754061C14.5703 1.22406 16.0149 2.27241 17 3.63897C17.9851 2.27241 19.4297 1.22406 21.1838 0.754061C25.2265 -0.329189 29.382 2.06996 30.4652 6.1127L33.3314 16.8094C34.4146 20.8521 32.0155 25.0076 27.9727 26.0908C23.93 27.1741 19.7746 24.7749 18.6913 20.7322L18.4058 19.6667ZM26.0939 23.1753C28.6051 23.1753 30.6409 21.063 30.6409 18.4573C30.6409 15.8516 28.6051 13.7393 26.0939 13.7393C23.5827 13.7393 21.547 15.8516 21.547 18.4573C21.547 21.063 23.5827 23.1753 26.0939 23.1753ZM7.90608 23.1753C10.4173 23.1753 12.453 21.063 12.453 18.4573C12.453 15.8516 10.4173 13.7393 7.90608 13.7393C5.39487 13.7393 3.35913 15.8516 3.35913 18.4573C3.35913 21.063 5.39487 23.1753 7.90608 23.1753Z" fill="#9F9FB7"/>
</svg>
