<svg width="38" height="28" viewBox="0 0 38 28" fill="none" xmlns="http://www.w3.org/2000/svg">
<path fill-rule="evenodd" clip-rule="evenodd" d="M10.1423 6.11969C10.8126 6.75055 10.8445 7.80534 10.2137 8.47563L4.62207 14.4167L10.2137 20.3578C10.8445 21.028 10.8126 22.0828 10.1423 22.7137C9.47197 23.3446 8.41718 23.3126 7.78632 22.6423L1.11966 15.559C0.515656 14.9172 0.515656 13.9162 1.11966 13.2744L7.78632 6.19108C8.41718 5.52079 9.47197 5.48883 10.1423 6.11969ZM27.8577 6.1197C27.1874 6.75056 27.1555 7.80535 27.7863 8.47564L33.3779 14.4167L27.7863 20.3578C27.1555 21.028 27.1874 22.0828 27.8577 22.7137C28.528 23.3446 29.5828 23.3126 30.2137 22.6423L36.8803 15.559C37.4843 14.9172 37.4843 13.9162 36.8803 13.2744L30.2137 6.19109C29.5828 5.5208 28.528 5.48884 27.8577 6.1197Z" fill="#9F9FB7"/>
<path fill-rule="evenodd" clip-rule="evenodd" d="M20.5822 1.65556C20.7252 1.1221 21.2735 0.805513 21.807 0.948455L23.0949 1.29355C23.6283 1.43649 23.9449 1.98483 23.802 2.51829L17.4178 26.3445C17.2748 26.8779 16.7265 27.1945 16.193 27.0516L14.9051 26.7065C14.3717 26.5635 14.0551 26.0152 14.198 25.4817L20.5822 1.65556Z" fill="#9F9FB7"/>
</svg>
