<svg width="16" height="17" viewBox="0 0 16 17" fill="none" xmlns="http://www.w3.org/2000/svg">
<path fill-rule="evenodd" clip-rule="evenodd" d="M3.33337 3.83338C3.15656 3.83338 2.98699 3.90361 2.86197 4.02864C2.74098 4.14963 2.6713 4.31234 2.66693 4.48295C2.82025 6.91224 3.85443 9.20252 5.576 10.9241C7.29756 12.6456 9.58784 13.6798 12.0171 13.8332C12.1877 13.8288 12.3505 13.7591 12.4714 13.6381C12.5965 13.5131 12.6667 13.3435 12.6667 13.1667V10.9514L10.2796 9.99655L9.5717 11.1764C9.39319 11.4739 9.01633 11.5847 8.70516 11.4313C7.12587 10.6524 5.84768 9.37421 5.0688 7.79492C4.91534 7.48375 5.0262 7.10689 5.32371 6.92838L6.50353 6.22049L5.54869 3.83338H3.33337ZM1.91916 3.08583C2.29423 2.71076 2.80294 2.50004 3.33337 2.50004H6.00004C6.27264 2.50004 6.51778 2.66601 6.61902 2.91912L7.95236 6.25245C8.07388 6.55626 7.95695 6.90335 7.67637 7.0717L6.56037 7.7413C7.10961 8.63705 7.86303 9.39047 8.75878 9.93971L9.42838 8.82371C9.59673 8.54313 9.94382 8.4262 10.2476 8.54772L13.581 9.88106C13.8341 9.9823 14 10.2274 14 10.5V13.1667C14 13.6971 13.7893 14.2058 13.4143 14.5809C13.0392 14.956 12.5305 15.1667 12 15.1667C11.9866 15.1667 11.9731 15.1663 11.9596 15.1655C9.19658 14.9976 6.59054 13.8242 4.63319 11.8669C2.67583 9.90954 1.50251 7.3035 1.3346 4.54048C1.33378 4.52702 1.33337 4.51353 1.33337 4.50004C1.33337 3.96961 1.54409 3.4609 1.91916 3.08583Z" fill="#9691A4"/>
<path fill-rule="evenodd" clip-rule="evenodd" d="M9.33337 5.16671C9.33337 4.79852 9.63185 4.50004 10 4.50004C10.5305 4.50004 11.0392 4.71076 11.4143 5.08583C11.7893 5.4609 12 5.96961 12 6.50004C12 6.86823 11.7016 7.16671 11.3334 7.16671C10.9652 7.16671 10.6667 6.86823 10.6667 6.50004C10.6667 6.32323 10.5965 6.15366 10.4714 6.02864C10.3464 5.90361 10.1769 5.83338 10 5.83338C9.63185 5.83338 9.33337 5.5349 9.33337 5.16671Z" fill="#9691A4"/>
<path fill-rule="evenodd" clip-rule="evenodd" d="M9.33337 2.50001C9.33337 2.13182 9.63185 1.83334 10 1.83334C11.2377 1.83334 12.4247 2.32501 13.2999 3.20018C14.175 4.07535 14.6667 5.26233 14.6667 6.50001C14.6667 6.8682 14.3682 7.16668 14 7.16668C13.6319 7.16668 13.3334 6.8682 13.3334 6.50001C13.3334 5.61596 12.9822 4.76811 12.3571 4.14299C11.7319 3.51787 10.8841 3.16668 10 3.16668C9.63185 3.16668 9.33337 2.8682 9.33337 2.50001Z" fill="#9691A4"/>
</svg>
