<svg width="129" height="23" viewBox="0 0 129 23" fill="none" xmlns="http://www.w3.org/2000/svg">
<path d="M46.8 19.25V6.13H50.7C51.5933 6.13 52.3733 6.23667 53.04 6.45C53.72 6.66333 54.2467 7.00333 54.62 7.47C55.0067 7.93667 55.2 8.55667 55.2 9.33C55.2 9.98333 55.0333 10.5767 54.7 11.11C54.38 11.63 53.9067 11.99 53.28 12.19V12.27C54.0667 12.4167 54.7067 12.75 55.2 13.27C55.7067 13.79 55.96 14.5033 55.96 15.41C55.96 16.2633 55.7467 16.9767 55.32 17.55C54.9067 18.1233 54.3267 18.55 53.58 18.83C52.8333 19.11 51.9667 19.25 50.98 19.25H46.8ZM48.46 11.71H50.4C51.52 11.71 52.3267 11.5167 52.82 11.13C53.3133 10.7433 53.56 10.2167 53.56 9.55C53.56 8.79 53.3 8.25 52.78 7.93C52.2733 7.61 51.5067 7.45 50.48 7.45H48.46V11.71ZM48.46 17.93H50.74C51.8733 17.93 52.7533 17.7233 53.38 17.31C54.0067 16.8833 54.32 16.23 54.32 15.35C54.32 14.5367 54.0067 13.9433 53.38 13.57C52.7667 13.1833 51.8867 12.99 50.74 12.99H48.46V17.93ZM62.1778 19.49C61.3911 19.49 60.6511 19.29 59.9578 18.89C59.2778 18.49 58.7245 17.91 58.2978 17.15C57.8845 16.39 57.6778 15.4767 57.6778 14.41C57.6778 13.3167 57.8845 12.39 58.2978 11.63C58.7245 10.87 59.2778 10.29 59.9578 9.89C60.6511 9.49 61.3911 9.29 62.1778 9.29C62.9778 9.29 63.7178 9.49 64.3978 9.89C65.0778 10.29 65.6245 10.87 66.0378 11.63C66.4645 12.39 66.6778 13.3167 66.6778 14.41C66.6778 15.4767 66.4645 16.39 66.0378 17.15C65.6245 17.91 65.0778 18.49 64.3978 18.89C63.7178 19.29 62.9778 19.49 62.1778 19.49ZM62.1778 18.13C63.0178 18.13 63.6911 17.79 64.1978 17.11C64.7178 16.4167 64.9778 15.5167 64.9778 14.41C64.9778 13.29 64.7178 12.3833 64.1978 11.69C63.6911 10.9967 63.0178 10.65 62.1778 10.65C61.3511 10.65 60.6778 10.9967 60.1578 11.69C59.6378 12.3833 59.3778 13.29 59.3778 14.41C59.3778 15.5167 59.6378 16.4167 60.1578 17.11C60.6778 17.79 61.3511 18.13 62.1778 18.13ZM73.0177 19.49C72.231 19.49 71.491 19.29 70.7977 18.89C70.1177 18.49 69.5643 17.91 69.1377 17.15C68.7243 16.39 68.5177 15.4767 68.5177 14.41C68.5177 13.3167 68.7243 12.39 69.1377 11.63C69.5643 10.87 70.1177 10.29 70.7977 9.89C71.491 9.49 72.231 9.29 73.0177 9.29C73.8177 9.29 74.5577 9.49 75.2377 9.89C75.9177 10.29 76.4643 10.87 76.8777 11.63C77.3043 12.39 77.5177 13.3167 77.5177 14.41C77.5177 15.4767 77.3043 16.39 76.8777 17.15C76.4643 17.91 75.9177 18.49 75.2377 18.89C74.5577 19.29 73.8177 19.49 73.0177 19.49ZM73.0177 18.13C73.8577 18.13 74.531 17.79 75.0377 17.11C75.5577 16.4167 75.8177 15.5167 75.8177 14.41C75.8177 13.29 75.5577 12.3833 75.0377 11.69C74.531 10.9967 73.8577 10.65 73.0177 10.65C72.191 10.65 71.5177 10.9967 70.9977 11.69C70.4777 12.3833 70.2177 13.29 70.2177 14.41C70.2177 15.5167 70.4777 16.4167 70.9977 17.11C71.5177 17.79 72.191 18.13 73.0177 18.13ZM80.0775 19.25V9.53H81.4375L81.5775 10.93H81.6375C82.1042 10.4633 82.5975 10.0767 83.1175 9.77C83.6375 9.45 84.2308 9.29 84.8975 9.29C85.9242 9.29 86.6708 9.61667 87.1375 10.27C87.6175 10.91 87.8575 11.85 87.8575 13.09V19.25H86.2175V13.31C86.2175 12.4033 86.0708 11.7433 85.7775 11.33C85.4842 10.9167 85.0175 10.71 84.3775 10.71C83.8842 10.71 83.4375 10.8367 83.0375 11.09C82.6508 11.3433 82.2108 11.7167 81.7175 12.21V19.25H80.0775ZM93.435 19.49C92.7017 19.49 92.0617 19.3233 91.515 18.99C90.9683 18.6433 90.5283 18.1633 90.195 17.55L90.895 17.09C91.215 17.65 91.5817 18.05 91.995 18.29C92.4083 18.53 92.8883 18.65 93.435 18.65C94.235 18.65 94.8283 18.4033 95.215 17.91C95.6017 17.4167 95.795 16.6367 95.795 15.57V6.07H96.715V15.67C96.715 16.3767 96.6083 17.0233 96.395 17.61C96.1817 18.1833 95.835 18.6433 95.355 18.99C94.875 19.3233 94.235 19.49 93.435 19.49ZM103.953 19.49C103.193 19.49 102.487 19.2967 101.833 18.91C101.18 18.51 100.653 17.9367 100.253 17.19C99.8533 16.43 99.6533 15.5233 99.6533 14.47C99.6533 13.39 99.8533 12.4767 100.253 11.73C100.653 10.97 101.18 10.3967 101.833 10.01C102.487 9.61 103.193 9.41 103.953 9.41C104.727 9.41 105.44 9.61 106.093 10.01C106.747 10.3967 107.273 10.97 107.673 11.73C108.073 12.4767 108.273 13.39 108.273 14.47C108.273 15.5233 108.073 16.43 107.673 17.19C107.273 17.9367 106.747 18.51 106.093 18.91C105.44 19.2967 104.727 19.49 103.953 19.49ZM103.953 18.71C104.607 18.71 105.187 18.53 105.693 18.17C106.2 17.81 106.6 17.3167 106.893 16.69C107.2 16.05 107.353 15.31 107.353 14.47C107.353 13.6167 107.2 12.87 106.893 12.23C106.6 11.59 106.2 11.09 105.693 10.73C105.187 10.37 104.607 10.19 103.953 10.19C103.313 10.19 102.733 10.37 102.213 10.73C101.707 11.09 101.307 11.59 101.013 12.23C100.72 12.87 100.573 13.6167 100.573 14.47C100.573 15.31 100.72 16.05 101.013 16.69C101.307 17.3167 101.707 17.81 102.213 18.17C102.733 18.53 103.313 18.71 103.953 18.71ZM114.916 19.49C114.463 19.49 113.983 19.3833 113.476 19.17C112.97 18.9433 112.49 18.6433 112.036 18.27H111.996L111.896 19.25H111.156V4.87H112.036V9.03L111.996 10.91C112.49 10.4967 113.016 10.1433 113.576 9.85C114.15 9.55667 114.73 9.41 115.316 9.41C116.596 9.41 117.556 9.85667 118.196 10.75C118.836 11.63 119.156 12.8167 119.156 14.31C119.156 15.39 118.956 16.3167 118.556 17.09C118.17 17.8633 117.656 18.4567 117.016 18.87C116.376 19.2833 115.676 19.49 114.916 19.49ZM114.876 18.71C115.53 18.71 116.103 18.5233 116.596 18.15C117.103 17.7767 117.496 17.2633 117.776 16.61C118.07 15.9433 118.216 15.1767 118.216 14.31C118.216 13.5233 118.116 12.8233 117.916 12.21C117.716 11.5833 117.39 11.09 116.936 10.73C116.496 10.37 115.91 10.19 115.176 10.19C114.696 10.19 114.196 10.33 113.676 10.61C113.156 10.8767 112.61 11.2633 112.036 11.77V17.47C112.57 17.9233 113.083 18.2433 113.576 18.43C114.07 18.6167 114.503 18.71 114.876 18.71ZM124.316 19.49C123.61 19.49 122.95 19.3633 122.336 19.11C121.736 18.8433 121.223 18.53 120.796 18.17L121.316 17.51C121.73 17.8433 122.17 18.13 122.636 18.37C123.103 18.61 123.683 18.73 124.376 18.73C125.123 18.73 125.69 18.5433 126.076 18.17C126.463 17.7833 126.656 17.3367 126.656 16.83C126.656 16.43 126.536 16.0967 126.296 15.83C126.056 15.5633 125.756 15.3433 125.396 15.17C125.05 14.9967 124.69 14.8433 124.316 14.71C123.836 14.5367 123.363 14.3433 122.896 14.13C122.443 13.9167 122.07 13.6433 121.776 13.31C121.483 12.9633 121.336 12.5167 121.336 11.97C121.336 11.2633 121.596 10.6633 122.116 10.17C122.65 9.66333 123.416 9.41 124.416 9.41C124.936 9.41 125.436 9.50333 125.916 9.69C126.41 9.87667 126.83 10.1167 127.176 10.41L126.696 11.03C126.363 10.79 126.016 10.59 125.656 10.43C125.296 10.2567 124.876 10.17 124.396 10.17C123.65 10.17 123.096 10.35 122.736 10.71C122.39 11.07 122.216 11.47 122.216 11.91C122.216 12.27 122.316 12.57 122.516 12.81C122.73 13.05 123.003 13.25 123.336 13.41C123.683 13.5567 124.043 13.7033 124.416 13.85C124.923 14.0367 125.416 14.2367 125.896 14.45C126.376 14.6633 126.77 14.95 127.076 15.31C127.396 15.67 127.556 16.1633 127.556 16.79C127.556 17.27 127.43 17.7167 127.176 18.13C126.923 18.53 126.556 18.8567 126.076 19.11C125.596 19.3633 125.01 19.49 124.316 19.49Z" fill="#0F1137"/>
<path fill-rule="evenodd" clip-rule="evenodd" d="M6.25 5C6.25 7.76142 8.48858 10 11.25 10C14.0114 10 16.25 7.76142 16.25 5C16.25 2.23858 14.0114 0 11.25 0C8.48858 0 6.25 2.23858 6.25 5ZM18.75 10C18.75 12.0711 20.4289 13.75 22.5 13.75C24.5711 13.75 26.25 12.0711 26.25 10C26.25 7.92893 24.5711 6.25 22.5 6.25C20.4289 6.25 18.75 7.92893 18.75 10Z" fill="#141838"/>
<path fill-rule="evenodd" clip-rule="evenodd" d="M11.2292 12.5C5.32739 12.5 0.485323 15.5331 0.000814605 21.499C-0.0255772 21.824 0.59589 22.5 0.909378 22.5H21.5584C22.4974 22.5 22.512 21.7443 22.4974 21.5C22.1311 15.3665 17.214 12.5 11.2292 12.5ZM29.3199 22.5H24.5C24.5 19.6863 23.5704 17.0898 22.0015 15.0008C26.2596 15.0473 29.7365 17.2002 29.9981 21.75C30.0087 21.9333 29.9981 22.5 29.3199 22.5Z" fill="#0601FC"/>
</svg>
