<svg display="none" xmlns="http://www.w3.org/2000/svg">
	<symbol id="link" viewBox="0 0 16 17">
		<g>
			<path fill-rule="evenodd" clip-rule="evenodd" d="M2.58579 5.08582C2.96086 4.71074 3.46957 4.50003 4 4.50003H7.33333C7.70152 4.50003 8 4.79851 8 5.1667C8 5.53489 7.70152 5.83336 7.33333 5.83336H4C3.82319 5.83336 3.65362 5.9036 3.5286 6.02863C3.40357 6.15365 3.33333 6.32322 3.33333 6.50003V12.5C3.33333 12.6768 3.40357 12.8464 3.5286 12.9714C3.65362 13.0965 3.82319 13.1667 4 13.1667H10C10.1768 13.1667 10.3464 13.0965 10.4714 12.9714C10.5964 12.8464 10.6667 12.6768 10.6667 12.5V9.1667C10.6667 8.79851 10.9651 8.50003 11.3333 8.50003C11.7015 8.50003 12 8.79851 12 9.1667V12.5C12 13.0305 11.7893 13.5392 11.4142 13.9142C11.0391 14.2893 10.5304 14.5 10 14.5H4C3.46957 14.5 2.96086 14.2893 2.58579 13.9142C2.21071 13.5392 2 13.0305 2 12.5V6.50003C2 5.9696 2.21071 5.46089 2.58579 5.08582Z" fill="currentColor"/>
			<path fill-rule="evenodd" clip-rule="evenodd" d="M13.8047 2.69529C14.0651 2.95564 14.0651 3.37775 13.8047 3.6381L7.13807 10.3048C6.87772 10.5651 6.45561 10.5651 6.19526 10.3048C5.93491 10.0444 5.93491 9.62231 6.19526 9.36196L12.8619 2.69529C13.1223 2.43494 13.5444 2.43494 13.8047 2.69529Z" fill="currentColor"/>
			<path fill-rule="evenodd" clip-rule="evenodd" d="M9.33335 3.1667C9.33335 2.79851 9.63182 2.50003 10 2.50003H13.3333C13.7015 2.50003 14 2.79851 14 3.1667V6.50003C14 6.86822 13.7015 7.1667 13.3333 7.1667C12.9652 7.1667 12.6667 6.86822 12.6667 6.50003V3.83336H10C9.63182 3.83336 9.33335 3.53489 9.33335 3.1667Z" fill="currentColor"/>
		</g>
	</symbol>

	<symbol id="location" viewBox="0 0 16 17">
		<g>
			<path fill-rule="evenodd" clip-rule="evenodd" d="M7.99999 6.4999C7.26361 6.4999 6.66665 7.09685 6.66665 7.83323C6.66665 8.56961 7.26361 9.16657 7.99999 9.16657C8.73636 9.16657 9.33332 8.56961 9.33332 7.83323C9.33332 7.09685 8.73636 6.4999 7.99999 6.4999ZM5.33332 7.83323C5.33332 6.36048 6.52723 5.16657 7.99999 5.16657C9.47274 5.16657 10.6667 6.36048 10.6667 7.83323C10.6667 9.30599 9.47274 10.4999 7.99999 10.4999C6.52723 10.4999 5.33332 9.30599 5.33332 7.83323Z" fill="currentColor"/>
			<path fill-rule="evenodd" clip-rule="evenodd" d="M8 3.16674C7.07703 3.16674 6.17479 3.44043 5.40737 3.9532C4.63994 4.46597 4.0418 5.19478 3.68859 6.04749C3.33537 6.9002 3.24294 7.8385 3.42299 8.74374C3.60303 9.64897 4.04746 10.4805 4.70009 11.1331L7.52917 13.9616C7.65417 14.0864 7.82364 14.1566 8.00034 14.1566C8.17703 14.1566 8.3465 14.0864 8.4715 13.9616L11.2999 11.1331C11.9525 10.4805 12.397 9.64897 12.577 8.74374C12.7571 7.8385 12.6646 6.9002 12.3114 6.04749C11.9582 5.19478 11.3601 4.46597 10.5926 3.9532C9.82521 3.44043 8.92297 3.16674 8 3.16674ZM12.2428 12.0759C13.0818 11.2368 13.6532 10.1677 13.8847 9.00383C14.1162 7.83995 13.9974 6.63357 13.5432 5.53723C13.0891 4.44089 12.3201 3.50384 11.3334 2.84457C10.3467 2.18529 9.18668 1.8334 8 1.8334C6.81333 1.8334 5.6533 2.18529 4.66661 2.84457C3.67993 3.50384 2.91089 4.44089 2.45676 5.53723C2.00262 6.63357 1.88378 7.83995 2.11527 9.00383C2.34675 10.1677 2.91817 11.2368 3.75725 12.0759L6.58665 14.9047C6.96167 15.2793 7.47025 15.4899 8.00034 15.4899C8.53042 15.4899 9.03882 15.2795 9.41384 14.9048L12.2428 12.0759Z" fill="currentColor"/>
		</g>
	</symbol>

	<symbol id="salary" viewBox="0 0 16 17">
		<g>
			<path fill-rule="evenodd" clip-rule="evenodd" d="M5.52377 7.16667C5.02614 7.16667 4.66663 7.54863 4.66663 7.96667V12.3667C4.66663 12.7847 5.02614 13.1667 5.52377 13.1667H13.1428C13.6404 13.1667 14 12.7847 14 12.3667V7.96667C14 7.54863 13.6404 7.16667 13.1428 7.16667H5.52377ZM3.33329 7.96667C3.33329 6.76467 4.33825 5.83333 5.52377 5.83333H13.1428C14.3283 5.83333 15.3333 6.76467 15.3333 7.96667V12.3667C15.3333 13.5687 14.3283 14.5 13.1428 14.5H5.52377C4.33825 14.5 3.33329 13.5687 3.33329 12.3667V7.96667Z" fill="currentColor"/>
			<path fill-rule="evenodd" clip-rule="evenodd" d="M9.66663 9.16667C9.11434 9.16667 8.66663 9.61438 8.66663 10.1667C8.66663 10.719 9.11434 11.1667 9.66663 11.1667C10.2189 11.1667 10.6666 10.719 10.6666 10.1667C10.6666 9.61438 10.2189 9.16667 9.66663 9.16667ZM7.33329 10.1667C7.33329 8.878 8.37796 7.83333 9.66663 7.83333C10.9553 7.83333 12 8.878 12 10.1667C12 11.4553 10.9553 12.5 9.66663 12.5C8.37796 12.5 7.33329 11.4553 7.33329 10.1667Z" fill="currentColor"/>
			<path fill-rule="evenodd" clip-rule="evenodd" d="M1.31729 3.11592C1.72987 2.71881 2.2842 2.5 2.8571 2.5H10.4761C11.0491 2.5 11.6034 2.71881 12.016 3.11592C12.4294 3.51386 12.6666 4.05914 12.6666 4.63333V6.1C12.6666 6.46819 12.3681 6.76667 12 6.76667C11.6318 6.76667 11.3333 6.46819 11.3333 6.1V4.63333C11.3333 4.42956 11.2494 4.22873 11.0913 4.07657C10.9324 3.92357 10.7115 3.83333 10.4761 3.83333H2.8571C2.62173 3.83333 2.40088 3.92357 2.24192 4.07657C2.08382 4.22873 1.99996 4.42956 1.99996 4.63333V9.03333C1.99996 9.23711 2.08382 9.43793 2.24192 9.5901C2.40088 9.7431 2.62173 9.83333 2.8571 9.83333H3.71424C4.08243 9.83333 4.38091 10.1318 4.38091 10.5C4.38091 10.8682 4.08243 11.1667 3.71424 11.1667H2.8571C2.2842 11.1667 1.72987 10.9479 1.31729 10.5507C0.903848 10.1528 0.666626 9.60753 0.666626 9.03333V4.63333C0.666626 4.05914 0.903848 3.51386 1.31729 3.11592Z" fill="currentColor"/>
		</g>
	</symbol>

	<symbol id="phone" viewBox="0 0 16 17">
		<g>
			<path fill-rule="evenodd" clip-rule="evenodd" d="M3.33337 3.83338C3.15656 3.83338 2.98699 3.90361 2.86197 4.02864C2.74098 4.14963 2.6713 4.31234 2.66693 4.48295C2.82025 6.91224 3.85443 9.20252 5.576 10.9241C7.29756 12.6456 9.58784 13.6798 12.0171 13.8332C12.1877 13.8288 12.3505 13.7591 12.4714 13.6381C12.5965 13.5131 12.6667 13.3435 12.6667 13.1667V10.9514L10.2796 9.99655L9.5717 11.1764C9.39319 11.4739 9.01633 11.5847 8.70516 11.4313C7.12587 10.6524 5.84768 9.37421 5.0688 7.79492C4.91534 7.48375 5.0262 7.10689 5.32371 6.92838L6.50353 6.22049L5.54869 3.83338H3.33337ZM1.91916 3.08583C2.29423 2.71076 2.80294 2.50004 3.33337 2.50004H6.00004C6.27264 2.50004 6.51778 2.66601 6.61902 2.91912L7.95236 6.25245C8.07388 6.55626 7.95695 6.90335 7.67637 7.0717L6.56037 7.7413C7.10961 8.63705 7.86303 9.39047 8.75878 9.93971L9.42838 8.82371C9.59673 8.54313 9.94382 8.4262 10.2476 8.54772L13.581 9.88106C13.8341 9.9823 14 10.2274 14 10.5V13.1667C14 13.6971 13.7893 14.2058 13.4143 14.5809C13.0392 14.956 12.5305 15.1667 12 15.1667C11.9866 15.1667 11.9731 15.1663 11.9596 15.1655C9.19658 14.9976 6.59054 13.8242 4.63319 11.8669C2.67583 9.90954 1.50251 7.3035 1.3346 4.54048C1.33378 4.52702 1.33337 4.51353 1.33337 4.50004C1.33337 3.96961 1.54409 3.4609 1.91916 3.08583Z" fill="currentColor"/>
			<path fill-rule="evenodd" clip-rule="evenodd" d="M9.33337 5.16671C9.33337 4.79852 9.63185 4.50004 10 4.50004C10.5305 4.50004 11.0392 4.71076 11.4143 5.08583C11.7893 5.4609 12 5.96961 12 6.50004C12 6.86823 11.7016 7.16671 11.3334 7.16671C10.9652 7.16671 10.6667 6.86823 10.6667 6.50004C10.6667 6.32323 10.5965 6.15366 10.4714 6.02864C10.3464 5.90361 10.1769 5.83338 10 5.83338C9.63185 5.83338 9.33337 5.5349 9.33337 5.16671Z" fill="currentColor"/>
			<path fill-rule="evenodd" clip-rule="evenodd" d="M9.33337 2.50001C9.33337 2.13182 9.63185 1.83334 10 1.83334C11.2377 1.83334 12.4247 2.32501 13.2999 3.20018C14.175 4.07535 14.6667 5.26233 14.6667 6.50001C14.6667 6.8682 14.3682 7.16668 14 7.16668C13.6319 7.16668 13.3334 6.8682 13.3334 6.50001C13.3334 5.61596 12.9822 4.76811 12.3571 4.14299C11.7319 3.51787 10.8841 3.16668 10 3.16668C9.63185 3.16668 9.33337 2.8682 9.33337 2.50001Z" fill="currentColor"/>
		</g>
	</symbol>

	<symbol id="worktime" viewBox="0 0 16 17">
		<g>
			<path fill-rule="evenodd" clip-rule="evenodd" d="M8.00004 3.16668C5.05452 3.16668 2.66671 5.55449 2.66671 8.50001C2.66671 11.4455 5.05452 13.8333 8.00004 13.8333C10.9456 13.8333 13.3334 11.4455 13.3334 8.50001C13.3334 5.55449 10.9456 3.16668 8.00004 3.16668ZM1.33337 8.50001C1.33337 4.81811 4.31814 1.83334 8.00004 1.83334C11.6819 1.83334 14.6667 4.81811 14.6667 8.50001C14.6667 12.1819 11.6819 15.1667 8.00004 15.1667C4.31814 15.1667 1.33337 12.1819 1.33337 8.50001ZM10.4714 6.69526C10.7318 6.95561 10.7318 7.37772 10.4714 7.63807L7.80478 10.3047C7.67975 10.4298 7.51018 10.5 7.33337 10.5C7.15656 10.5 6.98699 10.4298 6.86197 10.3047L5.52864 8.9714C5.26829 8.71105 5.26829 8.28894 5.52864 8.02859C5.78899 7.76824 6.2111 7.76824 6.47145 8.02859L7.33337 8.89052L9.52864 6.69526C9.78899 6.43491 10.2111 6.43491 10.4714 6.69526Z" fill="currentColor"/>
		</g>
	</symbol>

		<symbol id="rightArrow" viewBox="0 0 7 12">
		<g>
			<path fill-rule="evenodd" clip-rule="evenodd" d="M0.410826 0.410765C0.736263 0.0853278 1.2639 0.0853278 1.58934 0.410765L6.58934 5.41076C6.91477 5.7362 6.91477 6.26384 6.58934 6.58928L1.58934 11.5893C1.2639 11.9147 0.736263 11.9147 0.410826 11.5893C0.0853888 11.2638 0.0853888 10.7362 0.410826 10.4108L4.82157 6.00002L0.410826 1.58928C0.0853888 1.26384 0.0853888 0.736202 0.410826 0.410765Z" fill="currentColor"/>
		</g>
	</symbol>
</svg>